<svg width="33.006104" height="19.982910" viewBox="0 0 33.0061 19.9829" fill="none" xmlns="http://www.w3.org/2000/svg" xmlns:xlink="http://www.w3.org/1999/xlink">
	<desc>
			Created with Pixso.
	</desc>
	<defs/>
	<path id="Arrow" d="M31.5061 11.4915L1.5061 11.4915L1.5061 8.49146L31.5061 8.49146L31.5061 11.4915ZM31.4861 8.51147L31.5061 8.49146C32.3462 8.49146 33.0061 9.15149 33.0061 9.99146C33.0061 10.8314 32.3462 11.4915 31.5061 11.4915L31.4861 11.4714L31.4861 8.51147ZM3.62744 9.99146L11.052 17.4161C11.646 18.01 11.646 18.9435 11.052 19.5374C10.458 20.1313 9.52466 20.1313 8.93066 19.5374L0.445557 11.0521C-0.148438 10.4581 -0.148438 9.52478 0.445557 8.93079L8.93066 0.445557C9.52466 -0.148438 10.458 -0.148438 11.052 0.445557C11.646 1.03943 11.646 1.9729 11.052 2.56677L3.62744 9.99146Z" fill="#929495" fill-opacity="1.000000" fill-rule="evenodd"/>
</svg>
